<svg class="icon" style="width: 1.3017578125em; height: 1em;vertical-align: middle;fill: currentColor;overflow: hidden;" viewBox="0 0 1333 1024" version="1.1" xmlns="http://www.w3.org/2000/svg"><path d="M1102.502 907.508h-941.859c-24.402 0-44.149-20.538-44.149-45.99s19.748-45.99 44.149-45.99h941.859c24.402 0 44.149 20.538 44.149 45.99s-19.748 45.99-44.149 45.99zM1102.502 557.99h-941.859c-24.402 0-44.149-20.538-44.149-45.99s19.748-45.99 44.149-45.99h941.859c24.402 0 44.149 20.538 44.149 45.99s-19.748 45.99-44.149 45.99zM1102.502 208.47h-941.859c-24.402 0-44.149-20.539-44.149-45.99s19.748-45.99 44.149-45.99h941.859c24.402 0 44.149 20.538 44.149 45.99s-19.748 45.99-44.149 45.99z" fill="#409d8a" /></svg>